<?xml version="1.0" encoding="UTF-8" standalone="no"?>
<!DOCTYPE svg PUBLIC "-//W3C//DTD SVG 1.1//EN" "http://www.w3.org/Graphics/SVG/1.1/DTD/svg11.dtd">
<svg version="1.1" xmlns="http://www.w3.org/2000/svg" xmlns:xlink="http://www.w3.org/1999/xlink" preserveAspectRatio="xMidYMid meet" viewBox="0 0 640 640" width="640" height="640"><defs><path d="M405 205C405 315.38 315.39 405 205 405C94.62 405 5 315.38 5 205C5 94.61 94.62 5 205 5C315.39 5 405 94.61 405 205Z" id="deo3dDftt"></path><path d="M150 120C150 142.08 132.08 160 110 160C87.93 160 70 142.08 70 120C70 97.92 87.93 80 110 80C132.08 80 150 97.92 150 120Z" id="b6Fdm5uPsn"></path><path d="M600 350C600 487.97 487.98 600 350 600C212.02 600 100 487.97 100 350C100 212.02 212.02 100 350 100C487.98 100 600 212.02 600 350Z" id="k2yz5qKL4r"></path><path d="M293.52 250.45C293.52 272.52 275.59 290.45 253.52 290.45C231.44 290.45 213.52 272.52 213.52 250.45C213.52 228.37 231.44 210.45 253.52 210.45C275.59 210.45 293.52 228.37 293.52 250.45Z" id="c195gOCcdp"></path><path d="M426.31 226.03C426.31 248.11 408.39 266.03 386.31 266.03C364.23 266.03 346.31 248.11 346.31 226.03C346.31 203.96 364.23 186.03 386.31 186.03C408.39 186.03 426.31 203.96 426.31 226.03Z" id="dzp9Lvkvj"></path><path d="M521.35 330.45C521.35 352.52 503.43 370.45 481.35 370.45C459.28 370.45 441.35 352.52 441.35 330.45C441.35 308.37 459.28 290.45 481.35 290.45C503.43 290.45 521.35 308.37 521.35 330.45Z" id="c1jFFhX2iZ"></path><path d="M480 457.47C480 479.55 462.08 497.47 440 497.47C417.93 497.47 400 479.55 400 457.47C400 435.4 417.93 417.47 440 417.47C462.08 417.47 480 435.4 480 457.47Z" id="g40JvfjUSW"></path><path d="M261.17 377.47C261.17 399.55 243.25 417.47 221.17 417.47C199.1 417.47 181.17 399.55 181.17 377.47C181.17 355.4 199.1 337.47 221.17 337.47C243.25 337.47 261.17 355.4 261.17 377.47Z" id="g2mdDYtfQW"></path><path d="M346.31 485.22C346.31 507.3 328.39 525.22 306.31 525.22C284.23 525.22 266.31 507.3 266.31 485.22C266.31 463.14 284.23 445.22 306.31 445.22C328.39 445.22 346.31 463.14 346.31 485.22Z" id="a1YJHz5Gd2"></path><path d="M390 345.94C390 368.02 372.08 385.94 350 385.94C327.93 385.94 310 368.02 310 345.94C310 323.87 327.93 305.94 350 305.94C372.08 305.94 390 323.87 390 345.94Z" id="d8wyYLzup"></path></defs><g><g><g><use xlink:href="#deo3dDftt" opacity="1" fill="#fde468" fill-opacity="1"></use></g><g><use xlink:href="#b6Fdm5uPsn" opacity="1" fill="#e27a4c" fill-opacity="1"></use></g><g><use xlink:href="#k2yz5qKL4r" opacity="1" fill="#ffd11e" fill-opacity="1"></use><g><use xlink:href="#k2yz5qKL4r" opacity="1" fill-opacity="0" stroke="#efae00" stroke-width="50" stroke-opacity="1"></use></g></g><g><use xlink:href="#c195gOCcdp" opacity="1" fill="#e27a4c" fill-opacity="1"></use></g><g><use xlink:href="#dzp9Lvkvj" opacity="1" fill="#e27a4c" fill-opacity="1"></use></g><g><use xlink:href="#c1jFFhX2iZ" opacity="1" fill="#e27a4c" fill-opacity="1"></use></g><g><use xlink:href="#g40JvfjUSW" opacity="1" fill="#e27a4c" fill-opacity="1"></use></g><g><use xlink:href="#g2mdDYtfQW" opacity="1" fill="#e27a4c" fill-opacity="1"></use></g><g><use xlink:href="#a1YJHz5Gd2" opacity="1" fill="#e27a4c" fill-opacity="1"></use></g><g><use xlink:href="#d8wyYLzup" opacity="1" fill="#e27a4c" fill-opacity="1"></use></g></g></g></svg>